<svg id="レイヤー_1" data-name="レイヤー 1" xmlns="http://www.w3.org/2000/svg" xmlns:xlink="http://www.w3.org/1999/xlink" viewBox="0 0 499 499"><defs><style>.cls-1{fill:none;}.cls-2{clip-path:url(#clip-path);}.cls-3{fill:transparent;}</style><clipPath id="clip-path" transform="translate(22.3 28.79)"><rect class="cls-1" width="453.15" height="442.29"/></clipPath></defs><g class="cls-2"><path class="cls-3" d="M-22.3,470.21v-499h499v499ZM319,381c0-11.21-.07-21,0-30.79.38-43.65.87-87.31,1.19-131,.36-49.33.57-98.66.89-148,0-3.51.53-7,.88-11.33,4.56,3.2,8,5.73,11.6,8.12,21.79,14.63,39.28,33.38,53.1,55.59,13.09,21,21.51,43.93,26.11,68.24.75,4,2.22,7.16,7.1,6.47,8.57-1.22,17.13-2.45,25.67-3.85,7.66-1.25,8-1.75,6.71-9.42-9.21-54.5-34.49-100-76.44-136.1C350.41,27.09,321.14,12.4,289,3.1,278.34,0,276.25,1.32,275.86,12.53c0,1.16,0,2.33,0,3.5q-.42,91.73-.83,183.45-.33,114-.45,228c0,8.21,2,9.72,10,7.7,38.3-9.63,71.89-27.88,100.49-55.17,35.65-34,57.47-75.46,66.59-123.79.93-5-.62-7-5.42-7.76-9.22-1.36-18.39-3.09-27.62-4.36a4.67,4.67,0,0,0-3.81,2.34c-2.17,6.28-4.13,12.65-5.77,19.09-12.29,48.26-38.49,86.27-82,111.52C324.75,378.32,322.36,379.33,319,381Zm-177.48,4.22c-1.92-.38-3-.36-3.79-.79A127.32,127.32,0,0,1,125.92,378c-54.65-36.44-81.29-88.64-85.49-153.19-1.18-18.24,1.36-36.2,6.15-53.86,7.51-27.69,20.49-52.55,40.14-73.35,11.15-11.81,24-22.1,36.41-32.61,3.88-3.28,4.8-5.52,1.6-9.64-3.88-5-7.22-10.4-10.86-15.59-7.37-10.53-7.61-10.81-18.14-2.86C27,88.69-6,157.46.9,243.62,4.94,294,26.49,337.36,61.25,374c26.39,27.84,58.4,46.72,94.7,58.47A105.13,105.13,0,0,0,177.37,437c6.73.7,7-.12,7.07-6.83.3-44.33.74-88.66.85-133,.07-30.66-.32-61.33-.5-92,0-3.29.08-6.35-4.76-6.36q-53.75-.14-107.49-.55c-2.65,0-4.13.87-4.3,3.56-.55,8.59-1.28,17.17-1.56,25.77-.22,6.6,1,7.54,7.47,7.56,18.33.07,36.66.11,55,.24,11,.07,12.78,1.87,12.75,12.86q-.17,58.48-.37,117C141.51,371.64,141.53,378.07,141.53,385.21Z" transform="translate(22.3 28.79)"/><path d="M319.31,380.89c3.35-1.65,5.73-2.66,8-3.95,43.55-25.26,69.74-63.26,82-111.53,1.64-6.44,3.61-12.81,5.77-19.09a4.69,4.69,0,0,1,3.81-2.34c9.23,1.27,18.4,3,27.62,4.36,4.8.71,6.36,2.78,5.42,7.76-9.12,48.33-30.94,89.77-66.59,123.79-28.6,27.3-62.18,45.54-100.49,55.17-8,2-10,.52-10-7.69q.21-114,.46-228,.27-91.72.82-183.45c0-1.17,0-2.34,0-3.5C276.54,1.22,278.63-.09,289.31,3c32.13,9.3,61.4,24,86.82,45.85,41.95,36.08,67.24,81.6,76.44,136.11,1.29,7.66.95,8.17-6.7,9.42-8.54,1.39-17.11,2.62-25.68,3.84-4.87.69-6.35-2.48-7.1-6.47-4.6-24.31-13-47.19-26.11-68.24-13.82-22.21-31.31-41-53.1-55.59-3.56-2.39-7-4.92-11.6-8.12-.34,4.32-.85,7.83-.87,11.33-.33,49.33-.53,98.66-.89,148-.32,43.66-.82,87.32-1.2,131C319.23,359.9,319.31,369.69,319.31,380.89Z" transform="translate(22.3 28.79)"/><path d="M141.82,385.11c0-7.13,0-13.57,0-20q.18-58.5.37-117c0-11-1.74-12.79-12.75-12.86q-27.5-.18-55-.23c-6.48,0-7.68-1-7.47-7.57.28-8.59,1-17.18,1.56-25.77.17-2.68,1.65-3.57,4.3-3.55q53.74.36,107.49.54c4.85,0,4.74,3.07,4.76,6.36.18,30.67.58,61.33.5,92-.1,44.34-.54,88.67-.85,133,0,6.7-.33,7.52-7.07,6.82a105.11,105.11,0,0,1-21.42-4.45C120,420.64,87.93,401.76,61.55,373.93c-34.76-36.67-56.32-80-60.36-130.41C-5.71,157.37,27.26,88.6,96,36.75c10.54-7.95,10.77-7.67,18.15,2.86,3.63,5.19,7,10.6,10.85,15.59,3.2,4.12,2.28,6.36-1.6,9.64C111,75.35,98.17,85.64,87,97.45c-19.65,20.81-32.63,45.66-40.14,73.35-4.79,17.66-7.34,35.63-6.15,53.86,4.19,64.55,30.83,116.75,85.49,153.19A124.85,124.85,0,0,0,138,384.32C138.85,384.75,139.91,384.73,141.82,385.11Z" transform="translate(22.3 28.79)"/><path d="M250.66,434.18c0,5.11-2.95,7.32-8.07,7.4-9.65.14-19.3.51-29,.71-3.49.07-5.11-2-5.37-5.31-.12-1.66-.1-3.33-.09-5q.54-109.22,1.07-218.45c.08-16.65.05-33.3,0-49.95,0-8.79-1.75-10.43-10.59-10.42q-26.25.06-52.5.11c-6.93,0-8.29-1.18-8.13-8.17.88-39.63,1.93-79.27,2.8-118.9.36-16.08.48-16.5,15.86-21.09,5.74-1.71,11.51-3.38,17.36-4.67s7.58.2,7.54,6.28q-.32,49-.73,98c-.06,8.12.08,8.28,8.42,8.31,18.33.07,36.66.23,55,0,5.06-.06,6.45,1.64,6.43,6.62C250.55,172.14,250.5,381.86,250.66,434.18Z" transform="translate(22.3 28.79)"/></g></svg>